<?xml version="1.0" encoding="utf-8"?>
<!-- Generator: Adobe Illustrator 19.2.1, SVG Export Plug-In . SVG Version: 6.00 Build 0)  -->
<svg version="1.1" id="layer" xmlns="http://www.w3.org/2000/svg" xmlns:xlink="http://www.w3.org/1999/xlink" x="0px" y="0px"
	 viewBox="0 0 652 652" style="enable-background:new 0 0 652 652;" xml:space="preserve">
<style type="text/css">
	.st0{fill:#FAB916;}
	.st1{fill:#697172;}
	.st2{clip-path:url(#SVGID_2_);fill:url(#SVGID_3_);}
	.st3{fill:#FFFFFF;}
	.st4{fill:#48A2D2;}
</style>
<rect x="163.6" y="337.4" class="st0" width="460.6" height="4.8" />
<g>
	<path class="st1" d="M208.7,375.2v-12.1c0-1.3,0-2.6,0.1-3.9c-0.5,1.5-1,2.7-1.4,3.6l-5.8,12.4h-2.1l-5.9-12.4l-0.9-2.2l-0.5-1.4
		l0,1.4l0.1,2.4v12.1h-2.7v-18.2h4l6,12.6c0.2,0.5,0.4,1,0.6,1.6c0.2,0.6,0.3,1,0.4,1.3c0.1-0.3,0.3-0.9,0.5-1.6
		c0.3-0.7,0.5-1.1,0.6-1.3l5.9-12.6h3.9v18.2H208.7z"/>
	<polygon class="st1" points="230.4,375.2 230.4,357.1 247.5,357.1 247.5,359.1 233.4,359.1 233.4,364.9 246.6,364.9 246.6,366.9 
		233.4,366.9 233.4,373.2 248.2,373.2 248.2,375.2 	"/>
	<path class="st1" d="M285.2,366c0,1.9-0.5,3.5-1.4,4.9c-0.9,1.4-2.2,2.5-3.9,3.2c-1.7,0.7-3.6,1.1-5.8,1.1h-8.5v-18.2h7.5
		c3.8,0,6.8,0.8,8.9,2.3C284.2,360.9,285.2,363.1,285.2,366 M282.1,366c0-2.3-0.8-4-2.3-5.1c-1.5-1.2-3.8-1.8-6.7-1.8h-4.3v14.2h5
		c1.7,0,3.1-0.3,4.4-0.9c1.3-0.6,2.2-1.4,2.9-2.5C281.8,368.8,282.1,367.5,282.1,366"/>
	<rect x="303.3" y="357.1" class="st1" width="3.1" height="18.2"/>
	<path class="st1" d="M335.6,358.8c-2.5,0-4.5,0.6-5.8,1.9c-1.4,1.3-2.1,3.1-2.1,5.3c0,2.2,0.7,4,2.2,5.4c1.4,1.4,3.4,2,5.9,2
		c3.2,0,5.5-1.3,7.1-3.8l2.5,1c-0.9,1.6-2.2,2.8-3.9,3.6c-1.7,0.8-3.6,1.2-5.9,1.2c-2.3,0-4.2-0.4-5.9-1.1c-1.7-0.8-2.9-1.8-3.8-3.3
		c-0.9-1.4-1.3-3.1-1.3-5c0-2.9,1-5.2,2.9-6.8c1.9-1.6,4.6-2.5,8.1-2.5c2.4,0,4.4,0.4,6,1.1c1.6,0.8,2.8,1.9,3.6,3.4l-2.9,0.8
		c-0.5-1.1-1.4-1.9-2.5-2.4C338.5,359.1,337.2,358.8,335.6,358.8"/>
	<path class="st1" d="M378.8,375.2l-2.6-5.3h-10.3l-2.6,5.3h-3.2l9.2-18.2h3.5l9.1,18.2H378.8z M371.1,358.9l-0.1,0.4
		c-0.3,0.7-0.7,1.6-1.2,2.7l-2.9,6h8.5l-2.9-6c-0.3-0.6-0.6-1.3-0.9-2L371.1,358.9z"/>
	<polygon class="st1" points="398.1,375.2 398.1,357.1 401.2,357.1 401.2,373.2 412.6,373.2 412.6,375.2 	"/>
	<path class="st1" d="M461.4,365.1h10.4v10.1h-2.1l-0.8-2.5c-1.6,1.8-4.6,3-7.8,3c-4,0-6-1.2-7.2-2.1c-3.6-2.7-3.7-6-3.7-8
		c0-4.6,3.5-9.8,11.2-9.8c4.4,0,9.3,2,10,6.3h-3.1c-1-3.3-4.5-4-7.1-4c-4.2,0-7.7,2.7-7.7,7.7c0,3.9,1.6,7.8,7.9,7.8
		c1.2,0,3.1-0.1,4.8-1.2c2.1-1.3,2.6-3,2.6-5h-7.4V365.1z"/>
	<path class="st1" d="M506.3,375.2l-5.9-7.5h-7v7.5h-3.1v-18.2h10.6c2.5,0,4.5,0.5,5.9,1.4c1.4,0.9,2.1,2.2,2.1,3.8
		c0,1.3-0.5,2.5-1.5,3.4c-1,0.9-2.3,1.5-4.1,1.7l6.4,7.8H506.3z M505.8,362.3c0-1.1-0.4-1.9-1.3-2.4c-0.9-0.6-2.2-0.8-3.9-0.8h-7.3
		v6.7h7.4c1.6,0,2.9-0.3,3.7-0.9C505.4,364.2,505.8,363.4,505.8,362.3"/>
	<path class="st1" d="M548.8,366.1c0,1.9-0.5,3.6-1.4,5c-0.9,1.4-2.2,2.5-3.9,3.3c-1.7,0.8-3.7,1.1-6,1.1c-2.3,0-4.3-0.4-6-1.1
		s-3-1.8-3.9-3.3c-0.9-1.4-1.3-3.1-1.3-5c0-2.9,1-5.2,3-6.8c2-1.6,4.7-2.5,8.3-2.5c2.3,0,4.3,0.4,6,1.1c1.7,0.7,3,1.8,3.9,3.2
		C548.3,362.5,548.8,364.2,548.8,366.1 M545.7,366.1c0-2.3-0.7-4-2.1-5.3c-1.4-1.3-3.4-1.9-6-1.9c-2.6,0-4.6,0.6-6,1.9
		c-1.4,1.3-2.1,3.1-2.1,5.4c0,2.3,0.7,4.1,2.1,5.4c1.4,1.3,3.4,2,5.9,2c2.6,0,4.6-0.6,6-1.9C545,370.3,545.7,368.4,545.7,366.1"/>
	<path class="st1" d="M575.6,375.5c-1.9,0-3.5-0.3-4.8-0.8c-1.4-0.5-2.5-1.3-3.2-2.4c-0.8-1-1.1-2.3-1.1-3.7v-11.6h3.1v11.4
		c0,1.7,0.5,2.9,1.6,3.8c1,0.9,2.6,1.3,4.5,1.3c2,0,3.6-0.4,4.7-1.3c1.1-0.9,1.7-2.2,1.7-3.9v-11.2h3v11.3c0,1.5-0.4,2.7-1.2,3.8
		c-0.8,1.1-1.9,1.9-3.3,2.4C579.2,375.2,577.5,375.5,575.6,375.5"/>
	<path class="st1" d="M621.2,362.6c0,1.7-0.7,3.1-2.1,4.1c-1.4,1-3.3,1.5-5.7,1.5h-6.6v7.1h-3.1v-18.2h9.5c2.5,0,4.5,0.5,5.9,1.4
		C620.5,359.5,621.2,360.8,621.2,362.6 M618.1,362.6c0-2.3-1.8-3.5-5.3-3.5h-6.1v7.2h6.2C616.4,366.2,618.1,365,618.1,362.6"/>
</g>
<g>
	<defs>
		<path id="SVGID_1_" d="M25.7,325c0,39,31.6,70.6,70.6,70.6c39,0,70.6-31.6,70.6-70.6c0-39-31.6-70.6-70.6-70.6
			C57.3,254.4,25.7,286,25.7,325"/>
	</defs>
	<clipPath id="SVGID_2_">
		<use xlink:href="#SVGID_1_"  style="overflow:visible;"/>
	</clipPath>
	
		<radialGradient id="SVGID_3_" cx="20.4942" cy="734.5483" r="2.6151" gradientTransform="matrix(27.0155 0 0 27.0155 -457.2945 -19519.1738)" gradientUnits="userSpaceOnUse">
		<stop  offset="0" style="stop-color:#F7DC84"/>
		<stop  offset="0.1832" style="stop-color:#F7DC84"/>
		<stop  offset="0.2224" style="stop-color:#F7DA7C"/>
		<stop  offset="0.4681" style="stop-color:#F8CC50"/>
		<stop  offset="0.6884" style="stop-color:#F9C130"/>
		<stop  offset="0.8731" style="stop-color:#FABB1D"/>
		<stop  offset="1" style="stop-color:#FAB916"/>
	</radialGradient>
	<rect x="25.7" y="254.4" class="st2" width="141.3" height="141.3"/>
</g>
<g>
	<path class="st3" d="M135.4,262.8v93.3c0,7.3,0.6,11.5,1.7,12.6c1.2,1.1,6.1,1.9,15,2.6l1.2,0.1v7.2H96.9v-7.2l1.3-0.1
		c9.9-0.9,15-2.1,15.3-3.6c0.9-4,1.3-7.9,1.3-11.6v-66.5c0-5.6-0.3-9.2-1-10.8c-0.7-1.6-2.2-2.4-4.6-2.4c-0.9,0-4.5,0.5-10.9,1.4
		l-1.3,0.2v-7.7L135.4,262.8z"/>
	<polygon class="st4" points="188.4,264.2 228.2,264.2 228.2,273.6 202.8,273.6 202.8,287.1 226.7,287.1 226.7,296.6 202.8,296.6 
		202.8,321.5 188.4,321.5 	"/>
	<path class="st4" d="M234.7,263.5h13.8v9.5h-13.8V263.5z M234.7,278.3h13.8v43.2h-13.8V278.3z"/>
	<path class="st4" d="M258.1,278.3h13.2v5.8h0.2c2.8-4.2,6.7-6.9,12.4-6.9c0.8,0,1.7,0.1,2.5,0.2v10.6c-1.4-0.1-2.9-0.2-4.3-0.2
		c-4.8,0-10.2,2-10.2,7.8v25.9h-13.8V278.3z"/>
	<path class="st4" d="M301.5,307.3v1.4c0,3.8,2.5,6.3,7.2,6.3c4.2,0,7-1.7,7-5.1c0-2.8-2.3-4.1-5-4.9l-9.7-2.8
		c-7.6-2.2-11.5-5.9-11.5-12c0-7.1,5.6-13,19.8-13c12.5,0,18.4,4.5,18.4,12.3v1.8h-12.4c0-4.3-1.6-6.5-6.1-6.5
		c-3.5,0-6.5,1.6-6.5,4.7c0,2.1,1.4,3.9,6,5.1l8.3,2.2c8.7,2.3,11.9,5.9,11.9,12.4c0,9.1-8.4,13.6-20,13.6
		c-15.5,0-19.8-5.5-19.8-13.7v-1.5H301.5z"/>
	<path class="st4" d="M338.7,265.9h13.8v12.4h8v7.5h-8v23.4c0,3.4,0.9,4.7,4.9,4.7c1.1,0,2.2-0.1,3.1-0.2v7.7c-3,0.2-5.8,0.5-9,0.5
		c-10.8,0-12.8-2.6-12.8-11.4v-24.7h-7v-7.5h7V265.9z"/>
	<path class="st4" d="M396,283.5c0-8.3-2.1-12-8.6-12c-7.3,0-9,5.9-9,22.1c0,17.3,3,20.5,9.2,20.5c5.2,0,9-2.2,9-14.5H411
		c0,12.4-3.8,23-22.6,23c-21.6,0-24.2-12.4-24.2-29.8s2.7-29.8,24.2-29.8c20.6,0,22.1,12.1,22.1,20.5H396z"/>
	<path class="st4" d="M418.8,264.2h13.8v18.5h0.2c2.6-3.7,7.3-5.5,13.1-5.5c8.6,0,13.7,3.8,13.7,12.3v32h-13.8v-29.8
		c0-4.3-1.8-6-5.9-6c-4.7,0-7.3,2.3-7.3,7.1v28.7h-13.8V264.2z"/>
	<path class="st4" d="M488,277.2c16.6-0.2,21.2,7.7,21.2,22.7c0,14.8-5.4,22.7-21.2,22.7c-16.6,0.2-21.2-7.7-21.2-22.7
		C466.9,285.1,472.3,277.2,488,277.2 M488,315c5.6,0,7.4-4.4,7.4-15.2c0-10.8-1.8-15.2-7.4-15.2c-6.8,0-7.4,6.3-7.4,15.2
		C480.6,308.7,481.2,315,488,315"/>
	<path class="st4" d="M517.1,263.5h13.8v9.5h-13.8V263.5z M517.1,278.3h13.8v43.2h-13.8V278.3z"/>
	<path class="st4" d="M566.4,293.9c0-4.2-1-8.7-6.2-8.7c-6.8,0-7.9,4.8-7.9,14.8c0,10.7,1.2,15.1,7.4,15.1c4.6,0,6.7-3.1,6.7-10.1
		h13.2c0,11.3-5.9,17.7-20.5,17.7c-13.8,0-20.6-5.4-20.6-22.7c0-17.7,9.1-22.7,21.8-22.7c12.7,0,19.3,6.5,19.3,16.7H566.4z"/>
	<path class="st4" d="M598.5,301.6v3.5c0,5.1,1.7,10,6.8,10c4.6,0,6.5-2.8,7.3-8.1h12.4c-0.5,10-6.5,15.7-19.5,15.7
		c-20,0-20.8-12.4-20.8-23.1c0-11.6,2.8-22.3,21.4-22.3c16.1,0,19.7,8.7,19.7,21.9v2.5H598.5z M612.5,295c-0.3-6.6-1.3-10.3-7-10.3
		c-5.5,0-7.1,4.6-7.1,8.6v1.7H612.5z"/>
</g>
</svg>
