<?xml version="1.0" encoding="utf-8"?>
<!-- Generator: Adobe Illustrator 19.2.1, SVG Export Plug-In . SVG Version: 6.00 Build 0)  -->
<svg version="1.1" id="layer" xmlns="http://www.w3.org/2000/svg" xmlns:xlink="http://www.w3.org/1999/xlink" x="0px" y="0px"
	 viewBox="0 0 652 652" style="enable-background:new 0 0 652 652;" xml:space="preserve">
<style type="text/css">
	.st0{fill:url(#a_3_);}
	.st1{filter:url(#Adobe_OpacityMaskFilter);}
	.st2{clip-path:url(#SVGID_2_);fill:#FFFFFF;}
	.st3{clip-path:url(#SVGID_2_);mask:url(#d_1_);fill:url(#SVGID_3_);}
</style>
<path d="M276.4,490.1v-66.4h-24.9v65.8c0,9.7-5.6,13.9-13.2,13.9c-5.6,0-8.1-1.9-11.2-5.2l-16.3,16.3c7,7.6,17.1,11.7,27.5,11
	C257.4,525.6,276.4,514.1,276.4,490.1 M328.7,488.6v36.1h-24.8V423.6h40c22.5,0,34.5,15.9,34.5,32.5s-12,32.5-34.5,32.5L328.7,488.6
	L328.7,488.6z M328.7,446v20.4h14.1c6.8,0,10.8-5,10.8-10.2c0-5.2-4-10.2-10.8-10.2H328.7L328.7,446z M447.1,524.7h28.4L444,472.9
	l29.6-49.3h-28.3l-14.8,28.5l-14.7-28.5h-28.3l29.5,49.3l-31.5,51.8h28.4l16.6-31.1L447.1,524.7L447.1,524.7z M219.7,557.3
	c0,2.1-1.2,3-2.8,3c-1.2,0-1.7-0.4-2.4-1.1l-3.4,3.4c1.7,1.7,3.2,2.3,5.8,2.3c4,0,8-2.4,8-7.5v-14h-5.2V557.3z M235.3,543.4h4.1
	l7.7,21.3h-5.5l-1-3.2H234l-1,3.2h-5.5C227.5,564.8,235.3,543.4,235.3,543.4z M235.5,557.2h3.7l-1.8-5.7L235.5,557.2L235.5,557.2z
	 M258.4,543.4c4.8,0,7.3,3.4,7.3,6.8c0,3.6-2.6,6.9-7.3,6.9h-3.2v7.6H250v-21.4L258.4,543.4L258.4,543.4z M258.2,552.5
	c1.4,0,2.3-1.1,2.3-2.2s-0.8-2.1-2.3-2.1h-3v4.3H258.2z M273.9,543.4h4.1l7.7,21.3h-5.5l-1-3.2h-6.6l-1,3.2h-5.5L273.9,543.4
	L273.9,543.4z M274.2,557.2h3.7l-1.7-5.7L274.2,557.2L274.2,557.2z M305.3,564.8v-21.4h-5.2v10.7l-6.8-10.7h-4.6v21.3h5.2V554
	l6.8,10.8L305.3,564.8L305.3,564.8z M332.3,548.2v-4.7h-14.5v21.3h14.5v-4.6H323v-3.7h7.9v-4.6H323v-3.6L332.3,548.2L332.3,548.2z
	 M353.1,543.4h-5.9l-3.2,6l-3.1-6H335l6.2,10.4l-6.6,11h6l3.5-6.6l3.6,6.6h5.9l-6.6-11L353.1,543.4L353.1,543.4z M363.9,548
	c1.7,0,2.4,1,2.7,2.3h5.4c-0.4-4.1-4-7.2-8.1-7c-2.5,0-4.3,0.8-5.9,2.5c-2.3,2.2-2.1,5.2-2.1,8.4s-0.1,6.2,2.1,8.5
	c1.6,1.6,3.5,2.4,5.9,2.4c4.1,0,7.4-2.2,8.1-6.9h-5.4c-0.3,1.2-1,2.3-2.7,2.3c-0.8,0-1.6-0.3-2.1-0.9c-0.5-0.6-0.8-1.4-0.8-5.3
	c0-3.9,0.3-4.6,0.8-5.2C362.4,548.3,363.1,547.9,363.9,548 M380.7,556.4h5.6v8.4h5.3v-21.3h-5.3v8.2h-5.6v-8.2h-5.2v21.3h5.2
	L380.7,556.4L380.7,556.4z M402.2,543.4h4l7.7,21.3h-5.4l-1-3.2H401l-1,3.2h-5.5C394.5,564.8,402.2,543.4,402.2,543.4z M402.4,557.3
	h3.7l-1.8-5.7L402.4,557.3z M428.3,554.2l-6.8-10.7h-4.6v21.3h5.2V554l6.9,10.8h4.5v-21.4h-5.2L428.3,554.2L428.3,554.2z M446,556.9
	h3.1v0.3c0,0.8-0.2,1.6-0.8,2.3c-0.6,0.6-1.5,0.9-2.3,0.8c-0.8,0-1.6-0.3-2.1-0.9c-0.5-0.6-0.8-1.4-0.8-5.3c0-3.9,0.3-4.6,0.8-5.2
	c0.5-0.6,1.3-0.9,2.1-0.9c1.7,0,2.6,0.8,3,2.4h5.3c-0.5-3.5-2.8-7.1-8.4-7.1c-2.6,0-4.3,0.8-5.9,2.5c-2.3,2.2-2.2,5.2-2.2,8.4
	s-0.1,6.2,2.2,8.5c1.5,1.6,3.4,2.4,5.9,2.4c2.3,0,4.3-0.5,6.2-2.4c1.6-1.6,2.1-3.6,2.1-7.1v-3H446L446,556.9L446,556.9z
	 M458.8,564.8h14.5v-4.7H464v-3.7h7.9v-4.6H464v-3.6h9.2v-4.6h-14.5V564.8L458.8,564.8z M302.7,591.2h3.2v0.3c0,0.8-0.2,1.7-0.8,2.3
	c-0.5,0.5-1.2,0.8-2.3,0.8c-0.8,0-1.6-0.3-2.1-0.9c-0.5-0.6-0.8-1.4-0.8-5.2s0.3-4.6,0.8-5.2c0.5-0.6,1.3-1,2.1-1
	c1.8,0,2.6,0.8,3.1,2.4h5.2c-0.5-3.5-2.8-7.1-8.3-7.1c-2.6,0-4.4,0.9-5.9,2.5c-2.2,2.3-2.1,5.2-2.1,8.4c0,3.2-0.1,6.3,2.1,8.5
	c1.5,1.5,3.5,2.4,5.9,2.4c2.3,0,4.4-0.5,6.2-2.4c1.6-1.7,2.2-3.7,2.2-7.1v-3h-8.4C302.7,586.8,302.7,591.2,302.7,591.2z
	 M331.2,584.6c0,2.4-1.3,4.5-3.5,5.6l4.6,8.9h-6.1l-3.7-7.9h-1.7v7.9h-5.3v-21.3h8.5C328.7,577.7,331.2,581.1,331.2,584.6z
	 M323.6,586.7c1.5,0,2.3-1,2.3-2.1s-0.8-2.2-2.3-2.2h-2.9v4.3H323.6z M343.2,577.5c2.6,0,4.4,0.8,5.9,2.4c2.3,2.3,2.1,5.2,2.1,8.4
	c0,3.2,0.1,6.3-2.1,8.5c-1.5,1.5-3.4,2.4-5.9,2.4c-2.6,0-4.4-0.8-6-2.4c-2.3-2.3-2.1-5.2-2.1-8.5c0-3.2-0.1-6.2,2.1-8.4
	C338.7,578.4,340.5,577.5,343.2,577.5z M345.3,593.6c0.5-0.6,0.8-1.4,0.8-5.2c0-3.9-0.3-4.6-0.8-5.2c-0.5-0.6-1.3-1-2.1-1
	c-0.8,0-1.6,0.3-2.1,1c-0.5,0.6-0.8,1.3-0.8,5.2c0,3.9,0.3,4.6,0.8,5.3c0.5,0.6,1.3,0.9,2.1,0.9C344,594.5,344.7,594.2,345.3,593.6z
	 M366.2,591.4c0,1.9-1.2,3.1-2.8,3.1c-1.7,0-2.8-1.1-2.8-3.1v-13.7h-5.2v13.8c0,4.6,3.6,7.7,8.1,7.7c4.4,0,8.1-3,8.1-7.7v-13.8h-5.2
	L366.2,591.4L366.2,591.4z M384.6,577.7c4.7,0,7.3,3.4,7.3,6.8s-2.6,6.8-7.3,6.8h-3.2v7.6h-5.2v-21.3L384.6,577.7L384.6,577.7z
	 M384.4,586.8c1.2,0.1,2.2-0.9,2.3-2.1c0,0,0-0.1,0-0.1c0-1.2-1.1-2.2-2.3-2.2c0,0,0,0,0,0h-3v4.3L384.4,586.8L384.4,586.8z"/>
<linearGradient id="a_3_" gradientUnits="userSpaceOnUse" x1="-142.5222" y1="601.2932" x2="-141.8947" y2="600.4281" gradientTransform="matrix(41.18 0 0 -44.43 6226.98 26982.4785)">
	<stop  offset="0" style="stop-color:#F26631"/>
	<stop  offset="1" style="stop-color:#ED1C24"/>
</linearGradient>
<path id="a_1_" class="st0" d="M476.1,340.2l-49.5-25.8V101.8l49.5,25.8V340.2L476.1,340.2z M404,356.4l-49.5-25.8V117.9l49.5,25.8
	V356.4L404,356.4z M331.9,372.5l-49.5-25.8V134l49.5,25.8V372.5L331.9,372.5z M259.8,388.5l-49.6-25.8V150.2l49.6,25.8v212.7V388.5z
	"/>
<g>
	<defs>
		<rect id="SVGID_1_" x="207.4" y="99.2" width="271.1" height="290.5"/>
	</defs>
	<clipPath id="SVGID_2_">
		<use xlink:href="#SVGID_1_"  style="overflow:visible;"/>
	</clipPath>
	<defs>
		<filter id="Adobe_OpacityMaskFilter" filterUnits="userSpaceOnUse" x="-68.7" y="-249.7" width="561.7" height="561.7">
			<feColorMatrix  type="matrix" values="1 0 0 0 0  0 1 0 0 0  0 0 1 0 0  0 0 0 1 0"/>
		</filter>
	</defs>
	<mask maskUnits="userSpaceOnUse" x="-68.7" y="-249.7" width="561.7" height="561.7" id="d_1_">
		<g class="st1">
			<path id="a_2_" class="st2" d="M476.1,340.2l-49.5-25.8V101.8l49.5,25.8V340.2L476.1,340.2z M404,356.4l-49.5-25.8V117.9
				l49.5,25.8V356.4L404,356.4z M331.9,372.5l-49.5-25.8V134l49.5,25.8V372.5L331.9,372.5z M259.8,388.5l-49.6-25.8V150.2l49.6,25.8
				v212.7V388.5z"/>
		</g>
	</mask>
	
		<linearGradient id="SVGID_3_" gradientUnits="userSpaceOnUse" x1="-148.1441" y1="604.2327" x2="-147.5715" y2="603.4612" gradientTransform="matrix(87.0101 0 0 -87.0001 13195.7686 52725.4961)">
		<stop  offset="0" style="stop-color:#ED1C24"/>
		<stop  offset="1" style="stop-color:#710000"/>
	</linearGradient>
	<path class="st3" d="M493,31.1C493.3,186,368,311.7,213.1,311.9c-0.3,0-0.6,0-1,0C57,311.9-68.7,186.2-68.7,31.1
		S57-249.7,212.1-249.7S493-124,493,31.1L493,31.1"/>
</g>
</svg>
