<?xml version="1.0" encoding="utf-8"?>
<!-- Generator: Adobe Illustrator 19.0.0, SVG Export Plug-In . SVG Version: 6.00 Build 0)  -->
<svg version="1.1" id="layer" xmlns="http://www.w3.org/2000/svg" xmlns:xlink="http://www.w3.org/1999/xlink" x="0px" y="0px"
	 viewBox="-153 -46 652 652" style="enable-background:new -153 -46 652 652;" xml:space="preserve">
<style type="text/css">
	.st0{fill-rule:evenodd;clip-rule:evenodd;fill:#003F8C;}
	.st1{fill-rule:evenodd;clip-rule:evenodd;}
</style>
<path class="st0" d="M-39,305.7c-0.4,3.3-1.2,6.5-2,9.8h72.7c0.8-3.3,1.6-6.5,2-9.8l0.8-2.8h-72.7L-39,305.7z M-50.8,336.1
	c-6.9,6.5-17.5,8.9-26,8.9c-9.7,0-19.5-2-28.4-4.9l-11.4,58.9c15.8,4.5,32.1,5.7,49.2,5.7c25.6,0,52.4-4.1,72.7-25.6
	c12.6-13.8,19.1-31.7,23.6-49.2h-75.2C-47.5,332.1-49.2,334.1-50.8,336.1 M-9.3,154.9l-26,133.3h72.7L63,154.9H-9.3z M147.1,401.5
	h45.5l30.5-71.5h-80.4L147.1,401.5z M235.6,401.5h66.6l13-71.5h-66.6L235.6,401.5z M49.2,401.5h53.6l13-71.5H62.2L49.2,401.5z
	 M65,315.4h53.6l2-12.6H67L65,315.4z M141.4,315.4h87.8l5.3-12.6h-93.8L141.4,315.4z M251.5,315.4h66.6l2.4-12.6h-66.6L251.5,315.4z
	 M253.5,154.9l-56.1,130.8h-0.4l-9.3-130.8H94.3L69.9,288.2h53.6l11.4-63h0.8l4.1,63h101.2l26.4-63h0.8l-11.8,63H323l24.4-133.3
	H253.5z M215.3,467.4l-11.6,2.4l-1.8,0.4l-0.4-1.8l0,0v0v0c-0.2-1.2-0.5-2.3-0.8-3.4c-0.3-1-0.6-2.1-0.9-3
	c-1.7-4.8-4.1-8.3-7.2-10.5l0,0c-2.2-1.6-4.6-2.8-7.2-3.6c-2.6-0.8-5.3-1.2-8.2-1.2h0h0c-2.3,0-4.4,0.2-6.4,0.7
	c-0.7,0.1-1.3,0.3-1.9,0.5c-3.2,0.9-6.1,2.5-8.7,4.6h0h0h0h0l0,0c-0.7,0.5-1.3,1.1-1.9,1.7c-0.6,0.6-1.2,1.3-1.8,2
	c-3,3.6-5.4,8.2-7.3,13.8c-1.3,4-2.3,7.8-2.9,11.5c-0.6,3.7-0.8,7.2-0.6,10.6l0,0.2h0c0.1,1.1,0.2,2.3,0.3,3.4
	c0.2,1.1,0.3,2.2,0.6,3.2c1.1,5.2,3.3,9.3,6.6,12.5h0c2.3,2.2,4.9,3.9,7.8,5c2.9,1.1,6.2,1.7,9.9,1.7c5.7,0,10.7-1.6,15-4.9
	c4.4-3.3,8.1-8.3,11.2-15.1l0.7-1.4l1.5,0.4l11.1,3.4l1.9,0.6l-0.7,1.9c-3.7,9.2-9,16.2-15.7,20.8c-6.8,4.7-15,7-24.8,7
	c-13,0-23.2-3.8-30.7-11.5l0,0l-0.1-0.1c-1-1.1-2-2.2-2.9-3.3c-0.9-1.2-1.7-2.4-2.5-3.6c-3.9-6.3-6.1-13.7-6.5-22.1
	c-0.3-7,0.5-13.7,2.6-20.1c2.1-6.4,5.3-12.5,9.7-18.3h0l0,0l0,0c1.2-1.6,2.5-3.1,3.9-4.6c1.4-1.4,2.8-2.7,4.3-3.9
	c7.7-6.1,16.9-9.1,27.7-9.1l0,0h0v0c3.2,0,6.3,0.3,9.2,0.8c0.9,0.2,1.9,0.4,2.9,0.6c4.9,1.2,9.4,3.2,13.5,5.9l0,0l0,0v0
	c1.1,0.7,2.1,1.5,3,2.3c1,0.8,1.8,1.7,2.7,2.6c4.3,4.8,7.3,11.1,8.8,18.9l0.3,1.8L215.3,467.4z M176.5,434.1L176.5,434.1
	L176.5,434.1L176.5,434.1z M299.6,487h-48.9l-6.3,40.8l-0.2,1.5h-1.5h-13.1h-2.1l0.3-2.1l13.7-89.4l0.2-1.6h1.5h13.1h2.1l-0.3,2.1
	l-5.4,35.5h48.9l5.5-36.1l0.2-1.6h1.5H322h2.1l-0.3,2.1L310,527.8l-0.2,1.5h-1.5h-13h-2.1l0.3-2.1L299.6,487z M332,527.3l13.7-89.4
	l0.2-1.6h1.5h66.8h2.1l-0.3,2.1l-1.4,8.9l-0.3,1.5h-1.5h-52.1l-4,25.7h43.9h2.1l-0.3,2.1l-1.4,8.8l-0.2,1.5h-1.5h-44.3l-4.5,29.2
	h55.8h2.1l-0.3,2.1l-1.5,9.5l-0.2,1.5h-1.5h-71h-2.1L332,527.3z M530.7,529.4h-13.1h-2.1l0.3-2.1l11.2-72.7l-42.8,73.9l-0.5,0.9h-1
	h-9.9h-1.3l-0.4-1.3l-20.7-72.9l-11.2,72.7l-0.2,1.5h-1.5h-10.9h-2.1l0.3-2.1l13.7-89.4l0.2-1.6h1.5h19.8h1.3l0.4,1.3l19.8,69.2
	l40.3-69.6l0.5-0.9h1h21.1h2.1l-0.3,2.1l-13.7,89.4l-0.2,1.5H530.7z M-208.1,506.7c-3.3,17.9-12.6,24.4-35,24.4
	c-4.1,0-11-1.2-14.6-2.4l1.6-12.2c3.7,1.6,7.3,2.8,13,2.8c14.6,0,17.9-9.4,19.1-18.7l11.8-65h16.7L-208.1,506.7z M-172,435.6h63.8
	l-2,11.8h-46.3l-4.9,27.6h43.5l-1.6,11.8h-43.9l-5.7,30.9h49.2l-2,11.8h-66.3L-172,435.6z M-87.8,435.6h21.9l41.1,78.5h0.4l13-78.5
	H4.4l-16.3,93.9h-21.6L-74,451.4h-0.4l-12.2,78.1h-16.3L-87.8,435.6z M25.5,435.6h22.4L88.5,514h0.4l13-78.5h15.8l-16.3,93.9H80
	l-40.7-78.1h-0.4l-12.2,78.1H10.5L25.5,435.6z"/>
<path class="st1" d="M558.3,330.1c0.8,23.1-1.9,49-7.1,71.4H409.1c10.2-22.7,17.6-48.9,21.3-71.6L558.3,330.1z M464.8,344.5
	l-4.7,23.1c-0.9,4.6-1.6,7.4-1.9,8.5c-0.4,1.1-1.2,2-2.4,2.8c-1.3,0.8-2.9,1.2-4.9,1.2c-1.7,0-3.3-0.4-4.7-1.2
	c-1.4-0.8-2.1-2.2-2-4.3c0.1-1.3,0.3-2.9,0.6-4.7l5.1-25.3h-10.7l-5.4,26.9c-0.3,1.6-0.5,3-0.5,4.3c-0.1,3.7,1.1,6.7,3.8,9
	c2.6,2.3,6.6,3.5,11.9,3.5c3.3,0,6.2-0.5,8.6-1.4c2.4-0.9,4.3-2.2,5.8-3.8c1.4-1.6,2.4-3.2,3-4.8c0.6-1.7,1.3-4.8,2.3-9.5l4.8-24.2
	H464.8z M492.3,343.8c-4.9,0-8.8,1.4-11.6,4.2c-2.9,2.8-4.4,6-4.5,9.7c-0.1,2.2,0.4,4.2,1.4,6c1,1.8,2.4,3.1,4.1,4.1
	c1.7,1,4.1,1.8,7.1,2.6c3.3,0.9,5.3,1.7,6.2,2.3c0.9,0.6,1.3,1.6,1.2,3c0,1.5-0.7,2.7-1.9,3.6c-1.2,1-3,1.4-5.2,1.4
	c-4.9,0-7.8-2.2-8.6-6.5l-9.3,1.3c0.6,4.4,2.5,7.7,5.5,9.9c3.1,2.2,7,3.3,11.7,3.3c5.6,0,9.9-1.4,13-4.1c3.1-2.7,4.7-6.2,4.9-10.2
	c0.1-2.5-0.4-4.7-1.4-6.5c-1-1.8-2.5-3.1-4.6-4.1c-2-1-4.8-1.9-8.3-2.8c-2.4-0.6-4.1-1.2-4.9-1.9c-0.9-0.6-1.3-1.6-1.2-2.8
	c0-1.2,0.6-2.3,1.7-3.1c1.1-0.9,2.6-1.3,4.4-1.3c3.9,0,6.3,1.8,7.2,5.4l9-2.1C506,347.6,500.7,343.8,492.3,343.8 M539,344.5h-11.9
	L505,387.9h9.4l4.5-9.5h14.6l1.1,9.5h10.3L539,344.5z M530.6,353.4l2,17.4h-10.1L530.6,353.4z M74.3,40.7
	c-147.5,28-269.8,112.9-326.6,218.2c49.2-56.5,123.9-106,208-138.1c202.7-77.6,410.3-27.6,463.6,111.7c7,18,11,36.8,12.4,56h121.8
	C518.1,107.6,304.1-3.1,74.3,40.7 M555.9,302.7l-123.8,0.1c0,3.4-0.3,9.3-0.5,12.8h126C557.2,312.1,556.6,306,555.9,302.7
	 M580.6,401.7c-4,0-7.4-1.4-10.3-4.3c-2.8-2.8-4.2-6.3-4.2-10.2c0-3.9,1.4-7.3,4.2-10.2c2.8-2.8,6.3-4.3,10.3-4.3
	c4.1,0,7.5,1.4,10.3,4.3c2.8,2.9,4.2,6.3,4.2,10.1c0,3.9-1.4,7.2-4.2,10.1C588.1,400.3,584.6,401.7,580.6,401.7 M592.3,387.3
	c0-3.3-1.1-6.1-3.4-8.5c-2.3-2.4-5-3.5-8.3-3.5c-3.3,0-6.1,1.2-8.4,3.5c-2.3,2.3-3.5,5.2-3.5,8.5c0,3.3,1.2,6.1,3.5,8.5
	c2.3,2.3,5.1,3.5,8.3,3.5c3.2,0,6-1.2,8.3-3.5C591.2,393.4,592.3,390.6,592.3,387.3 M578,389v6.7h-4.4v-16.8h7.6
	c2.2,0,3.9,0.5,5,1.4c1.1,0.9,1.6,2.2,1.6,3.7c0,2-1,3.4-3,4.3l3.2,7.4h-4.8l-2.7-6.7H578z M578,381.9v4.1h2.3
	c1.1,0,1.9-0.2,2.4-0.5c0.4-0.4,0.6-0.9,0.6-1.6c0-0.4-0.1-0.8-0.4-1.2c-0.3-0.3-0.5-0.6-0.9-0.6c-0.3-0.1-0.9-0.1-1.8-0.1H578z"/>
</svg>
