<?xml version="1.0" encoding="utf-8"?>
<!-- Generator: Adobe Illustrator 19.2.1, SVG Export Plug-In . SVG Version: 6.00 Build 0)  -->
<svg version="1.1" id="layer" xmlns="http://www.w3.org/2000/svg" xmlns:xlink="http://www.w3.org/1999/xlink" x="0px" y="0px"
	 viewBox="0 0 652 652" style="enable-background:new 0 0 652 652;" xml:space="preserve">
<style type="text/css">
	.st0{fill:#B4015C;}
	.st1{fill:#58595B;}
</style>
<path class="st0" d="M98.6,293.2c-0.3-0.3-0.7-0.4-1.1-0.3c0,0,0,0,0,0H81l0-16.9c0-0.9-0.7-1.6-1.7-1.7H45.9h0
	c-0.7,0.1-1.4,0.8-1.3,1.7c0,0,0,15.6,0,16.9H28c0,0,0,0,0,0c-0.4-0.1-0.8,0-1.1,0.3c-0.3,0.3-0.5,0.7-0.6,1.1
	c0,0-0.1,33.6-0.1,33.6s0,0,0,0c0.2,1,0.8,1.7,1.7,1.7h10.8c0.6-5.6,2-10.5,4.3-14.5c-0.6-0.5-1.1-1.2-1.3-2c-0.3-1-0.2-2,0.3-2.8
	l9.4-17c0.4-0.9,1.2-1.6,2.1-1.9c0.7-0.2,1.4-0.2,2.1,0l0.8-1.6c0.2-0.3,0.5-0.4,0.8-0.2c0.3,0.2,0.4,0.5,0.3,0.8l-0.8,1.5
	c0.6,0.5,1.1,1.2,1.3,2.1c0.3,1,0.2,2-0.2,2.8l-9.4,17c-0.5,0.9-1.3,1.5-2.2,1.8c-0.7,0.2-1.4,0.2-2.1,0c-1.4,2.4-2.5,5.3-3.2,8.4
	c0.1-0.1,0.1-0.3,0.2-0.4c1-2.1,2.3-3.9,3.7-5.2c1.2-1.1,2.6-2,4.1-2.6c1.1-0.4,2.3-0.7,3.5-0.8c1-0.1,1.7-0.1,2,0
	c0.1,0,0.1,0,0.1,0c0,0,0,0,0,0v0c0,0,0,0,0,0l0,0l0,0l0,0c0,0-0.1,0.1-0.4,0.4c-1.2,1.2-4.9,4.7-7,9.2c-1.1,2.7-1.9,5.9-2.4,9.6
	c-0.1,1.2-0.3,2.5-0.3,3.8v8.3c0,0.4,0.2,0.8,0.5,1.1c0.3,0.2,0.6,0.4,0.9,0.3h0h4.8c-0.3-15.9,2.6-27.7,9.8-40.2
	c-0.5-0.4-0.9-1-1.1-1.7c-0.3-1-0.2-2.2,0.3-3.1L70,284.3c0.1-0.1,0.1-0.2,0.2-0.3c0,0,0-0.1,0.1-0.1c0.1-0.2,0.3-0.4,0.4-0.6
	c0,0,0.1-0.1,0.1-0.1c0.1-0.1,0.2-0.2,0.3-0.3c0.4-0.4,0.9-0.6,1.4-0.8c0.6-0.2,1.2-0.2,1.8-0.1c0.3-0.5,0.6-1.1,0.9-1.6
	c0.2-0.3,0.5-0.4,0.8-0.2c0.3,0.2,0.4,0.5,0.2,0.8c-0.3,0.5-0.5,1-0.8,1.5c0.7,0.5,1.3,1.3,1.5,2.2c0.3,1,0.1,2.1-0.4,3.1
	l-10.3,18.6c-0.5,1-1.3,1.7-2.4,2c-0.7,0.2-1.5,0.2-2.2-0.1c-1.1,2-2.2,3.9-3.1,5.9c1-1.3,2-2.3,3.2-3.2c1.4-1,2.9-1.7,4.5-2.1
	c2.9-0.7,5.3-0.4,6.1-0.3c0.1,0,0.2,0,0.2,0c0,0,0,0,0,0c0,0,0,0,0,0h0c0,0,0,0,0,0c0,0-0.1,0.1-0.4,0.4c-1.3,1-5.3,4.2-7.6,8.6
	c-1.3,2.5-2.4,5.6-3.3,9.2c-0.7,3-1.2,6.3-1.4,10c-0.3,4.2-0.3,8.2-0.3,11H66c-0.3-9.9,0.4-17,4.7-26.3c-0.6-0.5-1.1-1.2-1.3-2.1
	c-0.3-1-0.2-2,0.2-2.8l9.4-17.3c0.5-0.8,1.3-1.4,2.3-1.7c0.7-0.2,1.4-0.2,2.1,0.1c0.3-0.5,0.5-1,0.8-1.5c0.1-0.3,0.5-0.4,0.8-0.3
	c0.3,0.2,0.4,0.5,0.3,0.8c-0.3,0.5-0.5,1-0.8,1.6c0.7,0.5,1.2,1.1,1.4,1.9c0.3,1,0.2,2-0.4,3l-9.4,17c-0.4,0.9-1.2,1.5-2.1,1.8
	c-0.7,0.2-1.5,0.2-2.2,0c-1.6,3.5-2.7,6.8-3.4,9.9c0.2-0.6,0.4-1.3,0.7-1.9c0.9-2.2,2.1-4.1,3.6-5.6c1.2-1.2,2.7-2.1,4.4-2.7
	c2.7-1.1,5-1,5.4-1h0l0,0c0,0,0,0,0,0l0,0c0,0,0,0,0,0v0c0,0-0.1,0.1-0.4,0.5c-0.6,0.7-1.7,1.9-2.8,3.6c-1.4,2.1-2.5,4.2-3.2,6.1
	c-1.6,5-1.8,11.1-1.4,16.7h5h0c0.3,0,0.6-0.1,0.9-0.3c0.3-0.3,0.4-0.7,0.4-1c0,0,0-15.6,0-16.9h16.6c0.9,0,1.5-0.7,1.6-1.7
	c0,0-0.2-33.6-0.2-33.6v0C99,293.8,98.9,293.5,98.6,293.2"/>
<path class="st1" d="M615.2,292.1h-2V291h5.3v1.1h-1.9v7.2h-1.3V292.1z M619.2,299.3h1.3v-6.9h0l1.7,6.9h1.1l1.7-6.9h0v6.9h1.3V291
	h-2l-1.4,6.2h0l-1.5-6.2h-2.1V299.3z M136.2,333.9h7.4v-30.8l13.5,20.2h0.2L171,303v30.9h7.6v-43.1h-8.1l-13.1,20.4l-13.1-20.4h-8.1
	V333.9z M208.7,333.9v-4c-2.2,2.6-5.6,4.7-10.5,4.7c-6.2,0-11.6-3.5-11.6-10v-0.1c0-7.2,5.6-10.6,13.2-10.6c3.9,0,6.5,0.6,9,1.4
	v-0.6c0-4.5-2.8-7-8-7c-3.6,0-6.3,0.8-9.3,2l-2-6c3.6-1.6,7.1-2.7,12.4-2.7c9.6,0,14.3,5,14.3,13.7v19.3H208.7z M208.9,320.3
	c-1.9-0.7-4.6-1.3-7.4-1.3c-4.7,0-7.4,1.9-7.4,5v0.1c0,3.1,2.8,4.8,6.3,4.8c4.9,0,8.6-2.8,8.6-6.8V320.3z M224.9,301.4h7.4v7.3
	c2-4.9,5.8-8.2,11.5-7.9v7.9h-0.4c-6.5,0-11.1,4.3-11.1,12.9v12.4h-7.4V301.4z M247.7,329.7l3.3-5c3.5,2.6,7.3,4,10.6,4
	c3.2,0,5-1.4,5-3.5V325c0-2.5-3.4-3.4-7.3-4.6c-4.8-1.4-10.2-3.3-10.2-9.5v-0.1c0-6.2,5.1-9.9,11.6-9.9c4.1,0,8.5,1.4,11.9,3.7
	l-3,5.3c-3.1-1.9-6.5-3.1-9.2-3.1c-2.9,0-4.6,1.4-4.6,3.3v0.1c0,2.3,3.5,3.3,7.3,4.6c4.7,1.5,10.1,3.6,10.1,9.5v0.1
	c0,6.8-5.3,10.2-12.1,10.2C256.9,334.5,251.8,332.9,247.7,329.7 M281.2,289h7.4v17.5c2.1-3.1,5.1-5.7,10.2-5.7
	c7.3,0,11.6,4.9,11.6,12.5v20.7h-7.4v-18.5c0-5-2.5-7.9-7-7.9c-4.3,0-7.3,3-7.3,8.1v18.3h-7.4V289z M321,307.8h-4.1v-6.2h4.1v-2.3
	c0-3.6,0.9-6.3,2.6-8.1c1.7-1.7,4.1-2.6,7.3-2.6c2.6,0,4.4,0.4,6,0.9v6.3c-1.5-0.5-2.8-0.8-4.4-0.8c-2.8,0-4.3,1.5-4.3,4.9v1.8h8.6
	v6.2h-8.5v26.1H321V307.8z M342.6,289.4h8v7.1h-8V289.4z M342.9,301.4h7.5v32.5h-7.5V301.4z M358.3,317.8v-0.1
	c0-9.3,6.6-16.9,15.9-16.9c10.3,0,15.6,8.1,15.6,17.5c0,0.7-0.1,1.4-0.1,2.1h-23.9c0.8,5.3,4.6,8.2,9.4,8.2c3.6,0,6.2-1.4,8.8-3.9
	l4.4,3.9c-3.1,3.7-7.3,6.1-13.3,6.1C365.6,334.7,358.3,327.8,358.3,317.8 M382.4,315.4c-0.5-4.8-3.3-8.6-8.2-8.6
	c-4.6,0-7.8,3.5-8.4,8.6H382.4z M397.7,289h7.4v44.9h-7.4V289z M413.2,317.7v-0.1c0-10.8,7.3-16.9,15.1-16.9c5.4,0,8.7,2.7,11.1,5.7
	V289h7.5v44.9h-7.5v-5.4c-2.4,3.4-5.8,6.1-11.1,6.1C420.7,334.6,413.2,328.5,413.2,317.7 M439.5,317.7v-0.1c0-6.3-4.4-10.4-9.4-10.4
	c-5.1,0-9.4,3.9-9.4,10.4v0.1c0,6.3,4.3,10.4,9.4,10.4C435.1,328.1,439.5,323.9,439.5,317.7 M475.5,290.8h7.6V327h22.6v6.9h-30.2
	V290.8z M532.6,333.9v-4c-2.2,2.6-5.6,4.7-10.5,4.7c-6.2,0-11.6-3.5-11.6-10v-0.1c0-7.2,5.6-10.6,13.2-10.6c3.9,0,6.5,0.6,9,1.4
	v-0.6c0-4.5-2.8-7-8-7c-3.6,0-6.3,0.8-9.3,2l-2-6c3.6-1.6,7.1-2.7,12.4-2.7c9.6,0,14.3,5,14.3,13.7v19.3H532.6z M532.8,320.3
	c-1.9-0.7-4.6-1.3-7.5-1.3c-4.7,0-7.4,1.9-7.4,5v0.1c0,3.1,2.8,4.8,6.3,4.8c4.9,0,8.6-2.8,8.6-6.8V320.3z M556.3,328.9v5h-7.5V289
	h7.5v17.9c2.4-3.4,5.8-6.1,11-6.1c7.7,0,15.1,6.1,15.1,16.9v0.1c0,10.8-7.4,16.9-15.1,16.9C562,334.6,558.6,331.9,556.3,328.9
	 M574.9,317.7v-0.1c0-6.3-4.2-10.4-9.3-10.4c-5,0-9.5,4.2-9.5,10.4v0.1c0,6.3,4.4,10.4,9.5,10.4
	C570.7,328.1,574.9,324.1,574.9,317.7 M587.5,329.7l3.3-5c3.5,2.6,7.3,4,10.6,4c3.2,0,5.1-1.4,5.1-3.5V325c0-2.5-3.5-3.4-7.3-4.6
	c-4.8-1.4-10.2-3.3-10.2-9.5v-0.1c0-6.2,5.1-9.9,11.6-9.9c4.1,0,8.5,1.4,11.9,3.7l-2.9,5.3c-3.1-1.9-6.5-3.1-9.2-3.1
	c-2.9,0-4.6,1.4-4.6,3.3v0.1c0,2.3,3.5,3.3,7.3,4.6c4.7,1.5,10.1,3.6,10.1,9.5v0.1c0,6.8-5.3,10.2-12.1,10.2
	C596.7,334.5,591.5,332.9,587.5,329.7 M141.4,353.5h1.6l5.1,23.2h-1.5l-1.4-6.5h-6l-1.4,6.5h-1.5L141.4,353.5z M144.9,369l-2.7-13.2
	l-2.7,13.2H144.9z M155.5,368.4v-0.6c0-5.5,2.1-8.6,4.5-8.6c1.8,0,2.9,1.6,3.6,3.6v-9.4h1.4v23.4h-1.4v-3.3c-0.7,2-1.9,3.6-3.6,3.6
	C157.6,377,155.5,374,155.5,368.4 M163.7,368.5v-0.8c0-4.7-1.8-7.3-3.5-7.3c-1.8,0-3.3,2.7-3.3,7.4v0.6c0,4.8,1.5,7.4,3.3,7.4
	C161.9,375.8,163.7,373.2,163.7,368.5 M168.7,353.4h1.5v2.3h-1.5V353.4z M168.7,359.4h1.4v17.3h-1.4V359.4z M173,359.4h1.4l3.4,15
	l3.5-15h1.4l-4.3,17.4h-1.2L173,359.4z M185.5,353.4h1.5v2.3h-1.5V353.4z M185.5,359.4h1.4v17.3h-1.4V359.4z M189.7,376.1v-1.5
	c1.2,0.6,2.4,1,3.5,1c1.5,0,2.6-1,2.6-2.6V373c0-1.2-0.7-2.4-2.7-4.4c-2.6-2.4-3.4-3.8-3.4-5.6V363c0-2.4,1.9-3.8,3.9-3.8
	c1.2,0,1.9,0.2,2.9,0.6v1.5c-1-0.5-1.9-0.7-2.9-0.7c-1.4,0-2.5,0.9-2.5,2.4v0.1c0,1.3,0.7,2.2,2.7,4.3c2.4,2.4,3.4,3.8,3.4,5.7v0.1
	c0,2.4-2,3.9-4.1,3.9C191.8,377,190.8,376.7,189.7,376.1 M200,353.4h1.5v2.3H200V353.4z M200,359.4h1.4v17.3H200V359.4z
	 M204.4,368.2v-0.3c0-5.4,2.3-8.8,5-8.8s4.9,3.3,4.9,8.8v0.3c0,5.5-2.3,8.8-4.9,8.8C206.7,377,204.4,373.7,204.4,368.2 M212.9,368.2
	v-0.3c0-4.6-1.6-7.5-3.5-7.5c-1.9,0-3.5,2.9-3.5,7.5v0.3c0,4.6,1.6,7.5,3.5,7.5C211.3,375.7,212.9,372.8,212.9,368.2 M217.1,359.4
	h1.4v2.5c0.6-1.5,1.7-2.8,3.6-2.8c2.3,0,4,1.9,4,5.5v12.1h-1.4v-12c0-2.9-1-4.4-2.8-4.4c-1.9,0-3.3,1.9-3.3,4.7v11.7h-1.4V359.4z
	 M234.1,368.2v-0.3c0-5.4,2.3-8.8,5-8.8s4.9,3.3,4.9,8.8v0.3c0,5.5-2.3,8.8-4.9,8.8C236.4,377,234.1,373.7,234.1,368.2 M242.6,368.2
	v-0.3c0-4.6-1.6-7.5-3.5-7.5c-1.9,0-3.5,2.9-3.5,7.5v0.3c0,4.6,1.6,7.5,3.5,7.5C241,375.7,242.6,372.8,242.6,368.2 M247.5,360.7
	h-1.8v-1.3h1.8v-2c0-2.6,1.2-4.1,3.4-4.1c0.3,0,0.8,0.1,1,0.1v1.4c-0.3-0.1-0.8-0.1-1-0.1c-1.3,0-2,0.9-2,2.7v2h2.8v1.3h-2.8v16.1
	h-1.4V360.7z M259.4,353.6h1.8l4.3,12.9l4.3-12.9h1.8v23.1h-1.4v-19.9l-4.6,13.4h-0.1l-4.6-13.4v19.9h-1.4V353.6z M274.3,371.7v-0.3
	c0-3.2,1.7-5.5,4.6-5.5c1.2,0,2.1,0.3,2.9,0.7v-2.2c0-2.4-1.1-3.8-3.3-3.8c-1.2,0-2.2,0.2-3.2,0.8V360c1-0.5,2.1-0.8,3.3-0.8
	c2.8,0,4.6,1.8,4.6,5v12.6h-1.4v-2.5c-0.7,1.7-1.8,2.8-3.5,2.8C275.9,377.1,274.3,374.8,274.3,371.7 M281.7,371.3v-3.5
	c-0.9-0.4-1.8-0.7-2.8-0.7c-2.2,0-3.2,1.8-3.2,4.2v0.3c0,2.3,1,4.2,2.8,4.2C280.5,375.8,281.7,373.6,281.7,371.3 M286.5,359.4h1.4
	v2.5c0.7-1.6,2-2.9,4.1-2.7v1.5h-0.1c-2.2,0-4,1.4-4,4.4v11.6h-1.4V359.4z M293,376.1v-1.5c1.2,0.6,2.4,1,3.5,1c1.5,0,2.6-1,2.6-2.6
	V373c0-1.2-0.7-2.4-2.7-4.4c-2.6-2.4-3.4-3.8-3.4-5.6V363c0-2.4,1.9-3.8,3.9-3.8c1.2,0,1.9,0.2,2.9,0.6v1.5c-1-0.5-1.9-0.7-2.9-0.7
	c-1.4,0-2.5,0.9-2.5,2.4v0.1c0,1.3,0.7,2.2,2.7,4.3c2.4,2.4,3.4,3.8,3.4,5.7v0.1c0,2.4-2,3.9-4.1,3.9
	C295.1,377,294.1,376.7,293,376.1 M303.1,353.4h1.4v8.6c0.6-1.5,1.7-2.8,3.6-2.8c2.3,0,4,1.9,4,5.5v12.1h-1.4v-12
	c0-2.9-1-4.4-2.8-4.4c-1.9,0-3.3,1.9-3.3,4.7v11.7h-1.4V353.4z M315.9,360.7h-1.8v-1.3h1.8v-2c0-2.6,1.2-4.1,3.4-4.1
	c0.3,0,0.8,0.1,1,0.1v1.4c-0.3-0.1-0.8-0.1-1-0.1c-1.3,0-2,0.9-2,2.7v2h2.8v1.3h-2.8v16.1h-1.4V360.7z M322.5,353.4h1.5v2.3h-1.5
	V353.4z M322.6,359.4h1.4v17.3h-1.4V359.4z M328.3,368.7c0.1,4.7,2,7,4.3,7c1.1,0,1.9-0.3,3-1l0.2,1.4c-1.2,0.7-2,0.9-3.4,0.9
	c-2.9,0-5.5-2.8-5.5-8.6v-0.3c0-6,2.2-9,4.8-9c2.6,0,4.5,3.1,4.5,8.5v1H328.3z M328.3,367.4h6.5c0-4-1.3-7-3.2-7
	C329.9,360.4,328.5,362.9,328.3,367.4 M339.3,353.4h1.4v23.4h-1.4V353.4z M343.8,368.4v-0.6c0-5.5,2.1-8.6,4.5-8.6
	c1.8,0,2.9,1.6,3.6,3.6v-9.4h1.4v23.4H352v-3.3c-0.7,2-1.9,3.6-3.6,3.6C346,377,343.8,374,343.8,368.4 M352,368.5v-0.8
	c0-4.7-1.8-7.3-3.5-7.3c-1.8,0-3.3,2.7-3.3,7.4v0.6c0,4.8,1.5,7.4,3.3,7.4C350.3,375.8,352,373.2,352,368.5 M361.8,365.5v-0.6
	c0-7.6,2.9-11.4,6.2-11.4c1,0,1.6,0.2,2.2,0.6v1.6c-0.9-0.5-1.5-0.7-2.2-0.7c-2.6,0-4.7,3.5-4.7,10v0.6c0,6.5,2.1,10,4.7,10
	c0.8,0,1.5-0.2,2.3-0.8v1.5c-0.7,0.4-1.4,0.7-2.4,0.7C364.5,376.9,361.8,373.1,361.8,365.5 M373.4,353.4h1.4v23.4h-1.4V353.4z
	 M378.6,353.4h1.5v2.3h-1.5V353.4z M378.7,359.4h1.4v17.3h-1.4V359.4z M383.8,359.4h1.4v2.5c0.6-1.5,1.7-2.8,3.6-2.8
	c2.3,0,4,1.9,4,5.5v12.1h-1.4v-12c0-2.9-1-4.4-2.8-4.4c-1.9,0-3.3,1.9-3.3,4.7v11.7h-1.4V359.4z M396.2,353.4h1.5v2.3h-1.5V353.4z
	 M396.2,359.4h1.4v17.3h-1.4V359.4z M400.6,368.3V368c0-6,2.6-8.8,5.3-8.8c0.9,0,1.6,0.3,2.1,0.6v1.5c-0.6-0.5-1.3-0.8-2.1-0.8
	c-1.8,0-3.9,2.3-3.9,7.4v0.5c0,5.2,2,7.3,4,7.3c0.7,0,1.4-0.3,2-0.8v1.5c-0.6,0.4-1.2,0.7-2.1,0.7
	C403.2,377,400.6,374.3,400.6,368.3"/>
</svg>
