<?xml version="1.0" encoding="UTF-8"?>
<!-- Generator: Adobe Illustrator 14.0.0, SVG Export Plug-In . SVG Version: 6.00 Build 43363)  -->
<!DOCTYPE svg PUBLIC "-//W3C//DTD SVG 1.1//EN" "http://www.w3.org/Graphics/SVG/1.1/DTD/svg11.dtd">
<svg version="1.1" id="Layer_1" xmlns="http://www.w3.org/2000/svg" xmlns:xlink="http://www.w3.org/1999/xlink" x="0px" y="0px" width="311px" height="105.848px" viewBox="0 0 311 105.848" enable-background="new 0 0 311 105.848" xml:space="preserve" >
<rect width="311" height="105.848"/>
<path fill="#FFFFFF" d="M89.841,34.728c-1.469-0.041-2.97-0.083-4.542-0.145 M85.298,34.583c0,0,79.815-1.966,88.062-13.701  c6.747-9.583-145.194-9.541-163.106-9.831v-0.993L99.588,9.5c92.231-0.58,99.539,8.071,99.539,11.445  c0,5.919-19.02,9.292-45.366,11.527l1.821,0.518c25.353,8.506,40.854,19.372,108.261,22.226c5.029,0.207,20.904,1.14,31.354-1.964  l1.884-0.663l1.615-0.787c-3.974,5.588-27.34,5.568-30.651,5.526c-33.694-0.249-59.088,0.146-78.418-3.683  c-24.174-4.843-43.203-11.032-50.871-14.074c-13.762-5.463-26.222-4.326-48.915-4.843"/>
<path fill="#FFFFFF" d="M18.243,86.056c3.632-0.022,7.844-1.223,7.844-4.244c0-3.167-3.881-4.449-7.844-4.429V86.056z   M14.921,82.476c0-4.162-0.197-4.761-4.409-5.051v-0.373l9.199-0.207c9.51-0.249,10.276,3.104,10.276,4.408  c0,2.275-1.977,3.58-4.688,4.449l0.197,0.187c2.897,3.664,6.529,8.341,12.758,9.25l-0.134,0.414  c-4.004-0.123-6.923-0.039-9.126-1.675c-2.484-1.863-4.45-4.264-5.236-5.423c-1.531-2.256-2.887-1.613-5.516-1.924v4.365  c0,2.981,0.062,3.54,5.236,4.036v0.414H10.233v-0.414c4.532-0.434,4.584-1.24,4.688-4.036V82.476z"/>
<path fill="#FFFFFF" d="M50.849,94.933c4.534-0.434,4.554-1.24,4.677-4.036v-9.56c-0.124-2.796-0.144-3.603-4.677-4.058v-0.393  H71.11l-0.445,4.159h-0.58c-0.248-3.478-3.766-3.497-7.584-3.497h-3.643v7.719h3.922c2.814,0,4.977-0.165,5.381-2.504h0.569v6.065  h-0.569c-0.486-2.382-2.567-2.401-5.381-2.401h-3.922v4.45c0,1.571-0.527,3.807,5.661,3.807c4.739,0,7.099-1.303,8.03-4.697h0.568  c-0.041,2.048-0.527,3.725-1.292,5.359H50.849V94.933z"/>
<path fill="#FFFFFF" d="M116.559,93.258v0.393c-4.025,1.242-7.151,2.027-11.403,2.027c-7.782,0-14.373-3.393-14.373-9.353  c0-6.024,7.315-9.77,15.2-9.77c2.98,0,6.013,0.371,8.837,1.055l-0.155,4.739h-0.486c-0.952-3.166-3.964-5.132-8.537-5.132  c-6.53,0-10.493,3.581-10.493,8.112c0,5.381,5.319,9.416,12.842,9.416c3.436,0,3.395-0.641,3.395-2.422v-1.613  c0-3.021-1.108-3.352-5.091-3.704v-0.414h11.176v0.414c-2.65,0.372-2.764,1.139-2.764,2.835v3.416H116.559z"/>
<path fill="#FFFFFF" d="M133.499,94.933c4.533-0.434,4.575-1.24,4.678-4.036v-9.56c-0.103-2.796-0.145-3.603-4.678-4.058v-0.393  h20.262l-0.455,4.159h-0.569c-0.249-3.478-3.767-3.497-7.585-3.497h-3.643v7.719h3.923c2.814,0,4.978-0.165,5.381-2.504h0.568v6.065  h-0.568c-0.487-2.382-2.567-2.401-5.381-2.401h-3.923v4.45c0,1.571-0.527,3.807,5.661,3.807c4.74,0,7.099-1.303,8.03-4.697h0.57  c-0.042,2.048-0.528,3.725-1.294,5.359h-20.976V94.933z"/>
<path fill="#FFFFFF" d="M196.871,91.084l-0.207-9.893c-0.041-2.587-0.993-3.354-5.257-3.912v-0.393h10.285v0.393  c-2.587,0.27-3.083,1.304-3.373,3.063c-0.539,2.979-0.352,9.52-0.165,15.438l-0.498,0.063c-6.043-5.112-12.77-9.872-19.144-14.798  v4.987c0,6.727-0.228,8.113,5.258,8.899v0.414h-11.279v-0.414c5.091-0.371,4.883-2.876,4.883-9.044v-4.077  c0-2.711-0.599-3.766-5.39-4.532v-0.393h6.218L196.871,91.084z"/>
<path fill="#FFFFFF" d="M241.987,82.476h-0.559c-0.704-3.065-3.207-5.258-7.739-5.258c-6.892,0-10.782,4.076-10.782,8.732  c0,5.34,5.712,9.065,11.176,9.065c4.924,0,6.913-2.605,8.609-5.526l0.516,0.146c-0.433,1.655-1.18,3.29-2.089,4.864  c-2.4,0.848-5.009,1.179-7.678,1.179c-7.887,0-14.923-3.268-14.923-9.416c0-4.821,5.257-9.706,15.212-9.706  c2.876,0,5.774,0.414,8.257,1.469V82.476z"/>
<path fill="#FFFFFF" d="M282.222,76.887v0.393c-3.271,0.207-4.905,1.511-6.459,3.456l-4.489,6.374v3.042  c0.103,3.146,0.187,4.244,5.009,4.781v0.414h-13.288v-0.414c4.823-0.537,4.906-1.635,4.988-4.781v-2.152l-3.933-6.166  c-1.448-2.277-2.442-4.201-6.271-4.554v-0.393h10.409v0.393c-3.104,0.311-2.689,1.223-1.469,3.104l3.788,5.879l3.27-4.47  c2.359-3.167,2.028-4.202-1.242-4.513v-0.393H282.222z"/>
<path fill="#FFFFFF" d="M293.355,74.9c3.457,0,6.188-2.733,6.188-6.417c0-3.622-2.731-6.353-6.188-6.353  c-3.517,0-6.25,2.73-6.25,6.353C287.105,72.167,289.839,74.9,293.355,74.9 M285.905,68.483c0-4.18,3.395-7.265,7.43-7.265  c3.954,0,7.389,3.085,7.389,7.265c0,4.242-3.435,7.327-7.389,7.327C289.3,75.811,285.905,72.726,285.905,68.483"/>
<path fill="#FFFFFF" d="M293.271,67.946c1.016,0,1.906-0.062,1.906-1.283c0-0.994-0.891-1.159-1.719-1.159h-1.635v2.442H293.271z   M291.824,72.395h-1.201v-7.905h3.022c1.862,0,2.773,0.685,2.773,2.257c0,1.406-0.87,2.026-2.027,2.173l2.234,3.476h-1.325  l-2.091-3.435h-1.386V72.395z"/>
</svg>