<?xml version="1.0" encoding="utf-8"?>
<!-- Generator: Adobe Illustrator 19.2.1, SVG Export Plug-In . SVG Version: 6.00 Build 0)  -->
<svg version="1.1" id="layer" xmlns="http://www.w3.org/2000/svg" xmlns:xlink="http://www.w3.org/1999/xlink" x="0px" y="0px"
	 viewBox="0 0 652 652" style="enable-background:new 0 0 652 652;" xml:space="preserve">
<style type="text/css">
	.st0{fill:#808080;}
	.st1{fill:#BD0A10;}
</style>
<g>
	<path class="st0" d="M114.1,203.9l-23.6-14.6c-14.8-9.2-25.3-18.3-31.5-27.2c-6.3-9-9.4-19.2-9.4-30.9c0-17.5,5.9-31.6,17.8-42.5
		c11.8-10.9,27.2-16.3,46.2-16.3c18.1,0,34.7,5.2,49.8,15.6v36c-15.6-15.4-32.5-23.2-50.5-23.2c-10.2,0-18.5,2.4-25,7.2
		c-6.5,4.8-9.8,10.9-9.8,18.4c0,6.6,2.4,12.8,7.2,18.6c4.8,5.8,12.5,11.9,23.2,18.3l23.7,14.4c26.4,16.2,39.7,36.8,39.7,61.8
		c0,17.8-5.9,32.3-17.5,43.4c-11.6,11.1-26.7,16.7-45.3,16.7c-21.4,0-40.8-6.7-58.4-20.2v-40.1c16.7,21.5,36,32.3,58,32.3
		c9.7,0,17.7-2.8,24.2-8.3c6.4-5.5,9.7-12.5,9.7-20.9C142.6,228.8,133.1,216,114.1,203.9"/>
	<path class="st0" d="M378,151.2v-8.8c0-23.5,4.9-41.1,14.6-52.7c9.8-11.6,21.5-17.4,35.2-17.4c5.9,0,12.9,1,21,2.9v28.2
		c-4.6-1.8-8.9-2.6-13-2.6c-11.1,0-18.8,3-23.2,9.1c-4.3,6.1-6.5,16.9-6.5,32.5v8.8h25.6v26.1h-25.6v119.7H378V177.3h-20.4v-26.1
		H378z"/>
	<path class="st0" d="M574.4,89.8c4.6,0,8.6,1.6,11.9,4.9c3.3,3.2,5,7.3,5,12c0,4.7-1.7,8.7-5,12.1c-3.3,3.4-7.3,5.1-11.9,5.1
		c-4.4,0-8.2-1.7-11.5-5.2c-3.3-3.4-5-7.4-5-12c0-4.4,1.7-8.4,5-11.8C566.2,91.5,570,89.8,574.4,89.8 M560.5,151.2h28.2v145.8h-28.2
		V151.2z"/>
	<path class="st1" d="M476,413.9h-87.8c0.6,12.4,4.6,22.2,12,29.4c7.4,7.3,16.9,10.9,28.6,10.9c16.3,0,31.4-5.2,45.1-15.6v24.6
		c-7.6,5.2-15.2,8.9-22.6,11.1c-7.5,2.2-16.2,3.4-26.3,3.4c-13.8,0-24.9-2.9-33.4-8.8c-8.5-5.9-15.3-13.7-20.4-23.6
		c-5.1-9.9-7.7-21.3-7.7-34.3c0-19.4,5.4-35.2,16.1-47.4c10.7-12.2,24.7-18.3,41.9-18.3c16.6,0,29.7,5.9,39.6,17.7
		c9.9,11.9,14.8,27.7,14.8,47.6V413.9z M388.6,398.7h62.8c-0.6-10-3.6-17.7-8.8-23.1c-5.2-5.4-12.3-8.1-21.2-8.1
		c-8.8,0-16.1,2.7-21.7,8.1C394,381,390.3,388.7,388.6,398.7"/>
</g>
<rect x="487.7" y="310.7" class="st1" width="24.7" height="165"/>
<g>
	<path class="st0" d="M434,174.4l53-53.6v30.3h44.8v26.1H487v71.2c0,16.6,6.8,25,20.2,25c10.1,0,20.8-3.3,32-9.9v26.7
		c-10.8,6.2-22.6,9.3-35.4,9.3c-12.9,0-23.6-3.9-32.2-11.6c-2.7-2.3-4.9-4.9-6.6-7.8c-1.8-2.9-3.2-6.7-4.4-11.4
		c-1.2-4.7-1.8-13.7-1.8-26.9v-64.6H434V174.4z"/>
	<path class="st1" d="M237.3,306.1c-7.6,5.4-12.9,10.1-15.9,14c-3,3.9-4.5,8.1-4.5,12.5c0,14.9,22.3,24.5,66.9,28.9
		c7.1,0.7,12.7,1.3,16.9,1.8c32.3,3.3,54.4,9.3,66.2,17.6c11.9,8.3,17.8,21.3,17.8,38.9c0,26.8-14,51.3-42,73.3
		c-28,22-60,33.1-95.9,33.1c-27.7,0-49.8-6.5-66.4-19.4c-16.6-12.9-24.9-29.9-24.9-51c0-16.5,5.1-31,15.3-43.2
		c10.2-12.3,26-23.1,47.3-32.6c-10.7-3.8-18.8-8.5-24.4-14.2c-5.6-5.8-8.4-12.4-8.4-19.8c0-4.9,1.3-9.5,3.9-13.8
		c2.6-4.3,7.3-9.2,14.1-14.6l21.3-17.3 M285.4,390.7l-31-3.3c-0.8,0-2-0.1-3.4-0.3c-1.5-0.2-2.7-0.2-3.5-0.2
		c-18.2,0-33.1,5.9-44.8,17.6c-11.8,11.7-17.6,26.2-17.6,43.3c0,18.3,6,32.4,18,42.3c12,9.9,29,14.9,51,14.9
		c27.6,0,51.2-7.5,70.6-22.5c19.4-15,29.2-32.6,29.2-53c0-12.5-4.5-21.6-13.5-27C331.4,397.1,313.1,393.1,285.4,390.7"/>
	<path class="st1" d="M356.6,226c0,47.1-39.7,85.3-88.6,85.3c-48.9,0-88.5-38.2-88.5-85.3c0-47.1,39.6-85.3,88.5-85.3
		C316.9,140.7,356.6,178.9,356.6,226 M326.4,224.9c0-18.6-5.5-33.6-16.4-45c-10.9-11.4-25.3-17.1-43.1-17.1
		c-16.5,0-30.3,5.9-41.3,17.9c-11,11.9-16.5,27-16.5,45.3c0,18.6,5.4,33.6,16.2,45.1c10.8,11.5,24.8,17.2,42.1,17.2
		c17.7,0,31.9-5.7,42.7-17.3C321,259.3,326.4,244,326.4,224.9"/>
	<path class="st0" d="M555.2,468.2l-27.5,7.1v-3.8l13.9-3.3c3.5-0.8,6.9-1.6,9.5-2.1V466c-2.8-0.5-6-1.3-9.6-2.3l-13.8-3.7v-3.8
		l14-3.4c3.3-0.8,6.5-1.5,9.4-2v-0.1c-3-0.6-6.1-1.3-9.5-2.2l-13.8-3.7V441l27.5,7.9v3.8l-14.3,3.5c-3.6,0.9-6.2,1.4-9,1.9v0
		c2.8,0.5,5.4,1.1,9,2.2l14.3,4V468.2z"/>
</g>
<polygon class="st0" points="542.4,423 542.4,433.9 552.2,433.9 552.2,421.7 555.2,421.7 555.2,437.5 527.8,437.5 527.8,422.3 
	530.7,422.3 530.7,433.9 539.4,433.9 539.4,423 "/>
<g>
	<path class="st0" d="M528.1,408.2c-0.3-2.3-0.6-4.9-0.6-7.8c0-5.2,1.1-8.9,3.4-11.4c2.2-2.5,5.4-4,9.9-4c4.5,0,8.1,1.5,10.7,4.1
		c2.6,2.6,3.9,7,3.9,12.5c0,2.6-0.1,4.7-0.3,6.6H528.1z M552.5,404.5c0.2-0.9,0.2-2.2,0.2-3.7c0-7.7-4.3-12-11.7-12
		c-6.6,0-10.6,3.7-10.6,11.4c0,1.9,0.2,3.3,0.4,4.3H552.5z"/>
	<path class="st0" d="M555.7,369.4c0,7.5-5.6,12.6-13.9,12.6c-8.8,0-14.5-5.5-14.5-13c0-7.7,5.8-12.7,13.9-12.7
		C550.7,356.4,555.7,362.3,555.7,369.4L555.7,369.4z M552.8,369.3c0-5.8-5.2-9-11.4-9c-5.5,0-11.2,2.9-11.2,9c0,6,5.5,9,11.5,9
		C547.5,378.3,552.8,375,552.8,369.3L552.8,369.3z"/>
</g>
<rect x="527.8" y="339.2" class="st0" width="27.5" height="3.7"/>
<polygon class="st0" points="530.8,327.6 530.8,336.1 527.8,336.1 527.8,315.3 530.8,315.3 530.8,323.9 555.2,323.9 555.2,327.6 "/>
<g>
	<path class="st0" d="M154.1,546.5c1.4-0.3,3.7-0.6,5.9-0.6c3.2,0,5.3,0.6,6.8,1.9c1.3,1,2.1,2.5,2.1,4.5c0,2.5-1.6,4.7-4.3,5.6v0.1
		c2.4,0.6,5.2,2.6,5.2,6.4c0,2.2-0.8,3.9-2.1,5.1c-1.7,1.6-4.6,2.4-8.6,2.4c-2.2,0-3.9-0.2-5-0.3V546.5z M157.4,557h2.9
		c3.4,0,5.4-1.9,5.4-4.3c0-3-2.2-4.2-5.5-4.2c-1.5,0-2.3,0.1-2.8,0.2V557z M157.4,569.2c0.7,0.1,1.5,0.2,2.7,0.2
		c3.3,0,6.4-1.3,6.4-5c0-3.4-3-4.9-6.5-4.9h-2.7V569.2z"/>
	<path class="st0" d="M154.1,571.9l-0.2,0v-25.3v-0.2l0.1,0c1.5-0.3,3.8-0.6,6-0.6c3.3,0,5.4,0.6,7,1.9c1.3,1,2.2,2.6,2.2,4.7
		c0,2.4-1.5,4.6-3.9,5.6c2.3,0.7,4.8,2.8,4.8,6.4c0,2.3-0.9,4-2.2,5.3c-1.8,1.7-4.7,2.4-8.8,2.4C156.9,572.2,155.2,572,154.1,571.9
		 M159.1,571.7c4,0,6.8-0.8,8.5-2.3c1.3-1.2,2.1-2.8,2.1-4.9c0-3.7-2.7-5.6-5-6.1l-0.2,0V558v-0.3l0.2-0.1c2.5-0.9,4.1-3,4.1-5.4
		c0-1.9-0.8-3.4-2.1-4.4c-1.4-1.2-3.4-1.8-6.7-1.8c-2.1,0-4.3,0.2-5.7,0.5v24.7C155.4,571.5,157.1,571.7,159.1,571.7 M157.3,569.4
		l-0.2-0.1v-10.2h0.3h2.6c3.6,0,6.7,1.5,6.7,5.1c0,3.9-3.3,5.2-6.6,5.2C158.9,569.6,158.1,569.5,157.3,569.4 M160.1,569.1
		c3.3-0.1,6.1-1.2,6.1-4.7c0-3.2-2.7-4.7-6.2-4.7h-2.4v9.3L160.1,569.1z M157.4,557.2h-0.3v-8.7l0.2,0c0.5-0.1,1.4-0.2,2.9-0.2
		c3.3,0,5.7,1.3,5.7,4.4c0,2.6-2.1,4.6-5.6,4.6H157.4z M160.3,556.7c3.3,0,5.1-1.8,5.1-4.1c0-2.8-2-3.9-5.2-4
		c-1.3,0-2.1,0.1-2.6,0.2v7.8H160.3z"/>
	<path class="st0" d="M179.9,571.7v-10.9l-7.9-14.7h3.7l3.5,7.1c0.9,1.9,1.7,3.5,2.5,5.3h0.1c0.6-1.7,1.5-3.4,2.5-5.3l3.6-7.1h3.7
		l-8.4,14.7v10.9H179.9z"/>
	<path class="st0" d="M179.9,571.9v-0.2h0.2h-0.2V571.9h-0.3l0.1-11l-8.2-15.1h4.3l3.6,7.2c0.8,1.8,1.5,3.2,2.3,4.8
		c0.6-1.5,1.5-3.1,2.3-4.8l3.7-7.2h4.2l-8.5,15v11.1H179.9z M182.9,571.4l0.1-10.8l8.1-14.3h-3.1l-3.5,6.9c-1,1.9-1.9,3.6-2.5,5.2
		l-0.1,0.2h-0.2h-0.2l-0.1-0.1c-0.7-1.8-1.5-3.3-2.5-5.3l-3.4-6.9h-3.2l7.8,14.5v10.6H182.9z"/>
	<path class="st0" d="M205,572v-26.3h8.6c2.5,0,4.6,0.7,6.1,2c1.5,1.4,2.3,3.2,2.3,5.4c0,1.5-0.4,2.9-1.1,4.1
		c-0.8,1.2-1.9,2-3.3,2.6c-1.3,0.6-3.3,0.8-5.8,0.8H209V572H205z M212.9,549.1h-4v8.2h4.2c1.6,0,2.8-0.3,3.7-1.1
		c0.8-0.7,1.3-1.7,1.3-3.1C218.1,550.4,216.4,549.1,212.9,549.1"/>
	<path class="st0" d="M225.5,572v-26.3h6.8c2.7,0,4.9,0.7,6.5,2c1.6,1.3,2.4,3.1,2.4,5.3c0,1.5-0.4,2.9-1.1,4c-0.8,1.1-2,2-3.4,2.5
		l2.5,2.3c0.8,0.9,1.9,2.6,3.4,5c1,1.5,1.7,2.6,2.3,3.4l1.4,1.9h-4.6l-1.2-1.7l-0.3-0.3l-0.7-1l-1.2-1.9l-1.3-2
		c-0.8-1.1-1.5-1.9-2.2-2.6l-1.8-1.4c-0.5-0.3-1.4-0.4-2.7-0.4h-1V572H225.5z M230.5,549h-1.1v8.2h1.5c2,0,3.3-0.2,4-0.5l1.7-1.4
		l0.6-2.3l-0.7-2.2l-1.9-1.4C233.8,549.1,232.4,549,230.5,549"/>
	<path class="st0" d="M262.4,545.4c4.2,0,7.6,1.3,10.4,3.8c2.7,2.6,4.1,5.8,4.1,9.6c0,3.9-1.4,7.1-4.2,9.6
		c-2.8,2.5-6.3,3.8-10.6,3.8c-4,0-7.4-1.3-10.1-3.8c-2.7-2.5-4.1-5.7-4.1-9.5c0-3.9,1.3-7.2,4.1-9.7
		C254.9,546.7,258.3,545.4,262.4,545.4 M262.6,548.9c-3.1,0-5.6,0.9-7.6,2.8c-2,1.9-3,4.3-3,7.2c0,2.8,1,5.2,3,7.1
		c2,1.9,4.5,2.9,7.5,2.9c3,0,5.5-1,7.5-2.9c2-1.9,3-4.3,3-7.2c0-2.8-1-5.1-3-7.1C268,549.9,265.5,548.9,262.6,548.9"/>
	<path class="st0" d="M305,566v4.1c-2.8,1.5-6.1,2.3-9.8,2.3c-3.1,0-5.5-0.6-7.7-1.8c-2-1.2-3.7-2.8-4.9-4.9c-1.2-2-1.9-4.3-1.9-6.7
		c0-3.8,1.4-7.1,4.3-9.7c2.7-2.6,6.2-3.9,10.3-3.9c2.8,0,6,0.7,9.4,2.1v4.1c-3.2-1.8-6.2-2.6-9.2-2.6c-3.1,0-5.7,1-7.7,2.9
		c-2,1.9-3,4.3-3,7.2s1,5.3,3,7.2c2,1.8,4.6,2.8,7.7,2.8C298.7,568.9,301.9,567.9,305,566"/>
</g>
<path class="st0" d="M318.2,545.6h2.8l12.1,26.4h-4l-3.6-7.8h-11.5l-3.3,7.8h-3.9L318.2,545.6z M324,560.9l-4.3-9.5l-4.1,9.5H324z"
	/>
<g>
	<path class="st0" d="M335.9,572v-26.3h8.5c2.6,0,4.6,0.7,6.2,2c1.5,1.4,2.3,3.2,2.3,5.4c0,1.5-0.4,2.9-1.2,4.1
		c-0.8,1.2-1.9,2-3.2,2.6c-1.4,0.6-3.3,0.8-5.9,0.8h-2.9V572H335.9z M343.8,549.1h-4v8.2h4.2c1.6,0,2.8-0.3,3.6-1.1
		c0.9-0.7,1.3-1.7,1.3-3.1C348.9,550.4,347.2,549.1,343.8,549.1"/>
	<path class="st0" d="M362.9,561l-2.9-1.7c-1.8-1.1-3.1-2.2-3.9-3.2c-0.8-1.1-1.1-2.3-1.1-3.7c0-2.1,0.7-3.8,2.2-5.1
		c1.5-1.3,3.4-1.9,5.7-1.9c2.2,0,4.3,0.6,6.2,1.8v4.3c-2-1.8-4-2.7-6.2-2.7c-1.3,0-2.3,0.3-3.1,0.8l-1.2,2.2l0.9,2.2
		c0.6,0.7,1.5,1.4,2.9,2.2l2.9,1.7c3.3,1.9,4.9,4.4,4.9,7.3c0,2.1-0.7,3.8-2.1,5.2c-1.5,1.3-3.3,2-5.6,2c-2.6,0-5.1-0.8-7.2-2.3
		v-4.8c2.1,2.6,4.5,3.9,7.2,3.9c1.2,0,2.2-0.3,3-1l1.2-2.5C366.5,563.9,365.3,562.4,362.9,561"/>
</g>
</svg>
